<svg xmlns="http://www.w3.org/2000/svg" xmlns:xlink="http://www.w3.org/1999/xlink" version="1.1" x="0px" y="0px" viewBox="0 0 100 125" enable-background="new 0 0 100 100" xml:space="preserve"><path d="M83.646,39.628h-1.307c-1.891-4.953-5.128-9.438-9.44-13.072c-0.003-0.009-0.005-0.018-0.008-0.028  c-0.641-2.256-0.169-4.671,1.402-7.178c0.811-1.294,0.856-2.861,0.119-4.193c-0.728-1.315-2.108-2.133-3.601-2.133  c-0.174,0-0.351,0.011-0.526,0.033c-5.929,0.737-9.502,3.405-11.597,5.913c-2.586-0.834-5.977-1.098-6.59-1.14  c-1.515-0.167-3.06-0.251-4.594-0.251c-20.264,0-36.749,14.534-36.749,32.399c0,2.252,0.265,4.505,0.789,6.701  c0.008,0.04,0.017,0.08,0.027,0.12l0.023,0.086c0.547,2.223,1.361,4.394,2.419,6.454c1.753,3.772,3.836,6.914,6.19,9.338  c3.338,3.436,3.898,7.772,3.981,9.521v0.854c0,0.052,0.002,0.103,0.005,0.159c0.001,0.08,0.007,0.159,0.018,0.237  c0.201,1.988,1.89,3.527,3.901,3.527h12.062c2.163,0,3.923-1.76,3.923-3.924v-0.812c1.879,0.152,3.765,0.18,5.666,0.077v0.736  c0,2.164,1.76,3.924,3.924,3.924h12.063c2.164,0,3.924-1.76,3.924-3.924v-2.955c0.02-0.693,0.285-4.005,3.415-6.855  c0.158-0.134,0.314-0.27,0.468-0.407l0.02-0.017c0.04-0.034,0.079-0.068,0.116-0.105c4.054-3.629,7.085-8.055,8.83-12.878h1.126  c3.087,0,5.598-2.511,5.598-5.599v-9.009C89.245,42.14,86.733,39.628,83.646,39.628z M85.353,54.236  c0,0.941-0.765,1.707-1.706,1.707H81.12c-0.855,0-1.61,0.558-1.861,1.376c-1.442,4.704-4.287,9.044-8.229,12.552  c-0.01,0.009-0.02,0.018-0.029,0.026c-0.008,0.007-0.016,0.014-0.024,0.021c-0.145,0.129-0.292,0.256-0.44,0.382  c-0.015,0.013-0.03,0.026-0.044,0.039c-4.252,3.852-4.683,8.388-4.714,9.686c0,0.015-0.001,0.031-0.001,0.046v2.98  c0,0.017-0.014,0.032-0.032,0.032H53.684c-0.017,0-0.032-0.014-0.032-0.032V80.21c0-0.552-0.234-1.077-0.644-1.446  c-0.359-0.323-0.823-0.5-1.302-0.5c-0.068,0-0.136,0.004-0.204,0.011c-3.041,0.32-6.115,0.272-9.093-0.131  c-0.559-0.075-1.119,0.094-1.541,0.463c-0.423,0.37-0.665,0.904-0.665,1.465v2.979c0,0.018-0.014,0.032-0.032,0.032H28.109  c-0.02,0-0.027-0.018-0.029-0.025c0-0.003,0-0.005,0-0.008l-0.002-0.898c0-0.029-0.001-0.058-0.002-0.087  c-0.096-2.166-0.785-7.68-5.08-12.101c-2.056-2.117-3.896-4.909-5.468-8.3c-0.011-0.025-0.023-0.049-0.036-0.073  c-0.931-1.807-1.645-3.71-2.123-5.657c-0.004-0.018-0.009-0.036-0.014-0.054c-0.002-0.011-0.005-0.02-0.007-0.031  c-0.465-1.923-0.701-3.899-0.701-5.872c0-15.719,14.74-28.507,32.858-28.507c1.405,0,2.821,0.078,4.207,0.232  c0.029,0.003,0.058,0.006,0.087,0.008c1.832,0.122,5.249,0.592,6.617,1.334c0.881,0.477,1.98,0.207,2.541-0.623  c1.438-2.132,4.307-4.818,9.81-5.502c0.123-0.014,0.205,0.057,0.241,0.122c0.066,0.119,0.014,0.201-0.011,0.241  c-2.151,3.432-2.791,6.997-1.848,10.313c0.006,0.02,0.009,0.041,0.01,0.063c0.018,0.566,0.282,1.096,0.722,1.452  c4.408,3.561,7.601,8.08,9.235,13.069c0.262,0.8,1.008,1.34,1.849,1.34c0.011,0,0.022,0,0.033,0h2.649  c0.941,0,1.706,0.765,1.706,1.707V54.236z"/><text x="0" y="115" fill="#000000" font-size="5px" font-weight="bold" font-family="'Helvetica Neue', Helvetica, Arial-Unicode, Arial, Sans-serif">Created by Gregor Črešnar</text><text x="0" y="120" fill="#000000" font-size="5px" font-weight="bold" font-family="'Helvetica Neue', Helvetica, Arial-Unicode, Arial, Sans-serif">from the Noun Project</text></svg>